<svg width="50" height="53" viewBox="0 0 50 53" fill="none" xmlns="http://www.w3.org/2000/svg">
<g clip-path="url(#clip0_781_13)">
<path d="M9.6473 10H0C0 10.3 0.207469 10.6 0.414938 10.8C3.11203 13.4 6.84647 17 9.54357 19.6C9.75104 19.8 9.95851 19.6 9.95851 19.4V10.3C9.95851 10.1 9.75104 9.9 9.54357 9.9L9.6473 10ZM31.7427 0H31.0166V9C31.0166 9.5 30.6017 10 29.9793 10H21.3693C21.1618 10 20.9544 10.2 20.9544 10.4V43.4C20.9544 43.9 20.5394 44.4 19.917 44.4H11.3071C11.0996 44.4 10.8921 44.7 11.0996 44.8C12.9668 46.6 16.805 50.3 18.6722 52.1C19.1909 52.6 19.8133 53 20.7469 53H29.0456C29.8755 53 30.4979 52.4 30.4979 51.6V33C30.4979 32.8 30.7054 32.6 30.9129 32.6H31.8465C41.1826 32.6 50.1037 27.1 50.1037 16.2C50.1037 5.3 43.0498 0 31.7427 0Z" fill="white"/>
</g>
<defs>
<clipPath id="clip0_781_13">
<rect width="50" height="53" fill="white"/>
</clipPath>
</defs>
</svg>
