<svg width="50" height="53" viewBox="0 0 50 53" fill="none" xmlns="http://www.w3.org/2000/svg">
<path d="M9.64912 9.98551H0C0 10.2928 0.239234 10.5232 0.478469 10.7536C3.18979 13.3652 6.9378 16.9754 9.64912 19.587C9.80861 19.7406 10.0478 19.587 10.0478 19.4333V10.3696C10.0478 10.1391 9.88836 9.98551 9.64912 9.98551ZM31.7384 0H31.0207V8.98696C31.0207 9.52464 30.5423 9.98551 29.984 9.98551H21.2919C21.0526 9.98551 20.8931 10.1391 20.8931 10.3696V43.3217C20.8931 43.8594 20.4147 44.3203 19.8565 44.3203H11.244C11.0048 44.3203 10.8453 44.6275 11.0048 44.7812C12.9187 46.6246 16.6667 50.2348 18.5805 52.0783C19.059 52.5391 19.7767 53 20.6539 53H28.9474C29.7448 53 30.3828 52.3855 30.3828 51.6174V33.029C30.3828 32.7986 30.5423 32.6449 30.7815 32.6449H31.6587C40.9888 32.6449 50 27.1913 50 16.2841C50 5.37681 43.1419 0 31.7384 0Z" fill="black"/>
</svg>
